<svg width="437" height="433" viewBox="0 0 437 433" fill="none" xmlns="http://www.w3.org/2000/svg">
<path d="M69.5 357C73.642 357 76.9998 360.402 77 364.6V425.4C76.9998 429.598 73.642 433 69.5 433H9.5C5.35799 433 2.00021 429.598 2 425.4V364.6C2.00021 360.402 5.35799 357 9.5 357H69.5ZM250.438 357C254.614 357 258 360.402 258 364.6V425.4C258 429.598 254.614 433 250.438 433H98.5625C94.3861 433 91.0002 429.598 91 425.4V364.6C91.0002 360.402 94.3861 357 98.5625 357H250.438ZM430.246 357C433.424 357 436 359.601 436 362.809C436 401.574 404.87 433 366.469 433H278.528C274.371 433 271 429.598 271 425.4V364.6C271 360.402 274.371 357 278.528 357H430.246ZM68.4004 179C72.5976 179 76 182.384 76 186.558V336.442C76 340.616 72.5976 344 68.4004 344H7.59961C3.40243 344 0 340.616 0 336.442V186.558C0 182.384 3.40243 179 7.59961 179H68.4004ZM159.4 268C163.597 268 167 271.403 167 275.6V336.4C167 340.597 163.597 344 159.4 344H98.5996C94.4026 344 91.0002 340.597 91 336.4V275.6C91.0002 271.403 94.4026 268 98.5996 268H159.4ZM338.5 179C342.642 179 346 182.383 346 186.556V336.4C346 340.598 342.624 344 338.46 344H189.54C185.376 344 182 340.598 182 336.4V275.6C182 271.402 185.376 268 189.54 268H271V186.556C271 182.383 274.358 179 278.5 179H338.5ZM429.5 268C433.642 268 437 271.402 437 275.6V336.4C437 340.598 433.642 344 429.5 344H369.5C365.358 344 362 340.598 362 336.4V275.6C362 271.402 365.358 268 369.5 268H429.5ZM249.488 89C253.637 89 257 92.4024 257 96.5996V157.4C257 161.598 253.637 165 249.488 165H168V246.457C168 250.623 164.642 254 160.5 254H100.5C96.3579 254 93 250.623 93 246.457V96.5996C93.0002 92.4024 96.3634 89 100.512 89H249.488ZM218.5 179C239.211 179 256 195.789 256 216.5C256 237.211 239.211 254 218.5 254C197.789 254 181 237.211 181 216.5C181 195.789 197.789 179 218.5 179ZM429.5 89C433.642 89 437 92.3839 437 96.5576V246.442C437 250.616 433.642 254 429.5 254H369.5C365.358 254 362 250.616 362 246.442V96.5576C362 92.3839 365.358 89 369.5 89H429.5ZM69.5 89C73.642 89 76.9998 92.4024 77 96.5996V157.4C76.9998 161.598 73.642 165 69.5 165H9.5C5.358 165 2.00021 161.598 2 157.4V96.5996C2.00021 92.4024 5.35799 89 9.5 89H69.5ZM338.5 89C342.642 89 346 92.4024 346 96.5996V157.4C346 161.598 342.642 165 338.5 165H278.5C274.358 165 271 161.598 271 157.4V96.5996C271 92.4024 274.358 89 278.5 89H338.5ZM159.442 0C163.616 1.82435e-07 167 3.40242 167 7.59961V68.4004C167 72.5976 163.616 76 159.442 76H7.06641C4.26843 76 2.00013 73.719 2 70.9053C2 31.7456 33.5665 0.000185909 72.5059 0H159.442ZM338.438 0C342.614 1.82556e-07 346 3.40242 346 7.59961V68.4004C346 72.5976 342.614 76 338.438 76H186.562C182.386 76 179 72.5976 179 68.4004V7.59961C179 3.40242 182.386 -1.82556e-07 186.562 0H338.438ZM429.5 0C433.642 1.22557e-06 437 3.40243 437 7.59961V68.4004C437 72.5976 433.642 76 429.5 76H369.5C365.358 76 362 72.5976 362 68.4004V7.59961C362 3.40242 365.358 -1.81053e-07 369.5 0H429.5Z" fill="#32A041"/>
<circle cx="219" cy="216" r="38" fill="#AC0001"/>
</svg>
